<mxfile host="app.diagrams.net" modified="2023-03-31T12:36:37.485Z" agent="5.0 (Windows NT 10.0; Win64; x64) AppleWebKit/537.36 (KHTML, like Gecko) Chrome/111.0.0.0 Safari/537.36 Edg/111.0.1661.54" etag="GRybgkVvYAzVm2K5C-Et" version="21.0.6" type="github">
  <diagram id="yPxyJZ8AM_hMuL3Unpa9" name="gitflow">
    <mxGraphModel dx="1434" dy="884" grid="1" gridSize="10" guides="1" tooltips="1" connect="1" arrows="1" fold="1" page="1" pageScale="1" pageWidth="850" pageHeight="1100" math="0" shadow="0">
      <root>
        <mxCell id="0" />
        <mxCell id="1" parent="0" />
        <mxCell id="V83d8pZ997Txuc6RfxCM-184" style="edgeStyle=orthogonalEdgeStyle;rounded=1;orthogonalLoop=1;jettySize=auto;html=1;exitX=0;exitY=0.5;exitDx=0;exitDy=0;entryX=0.5;entryY=0;entryDx=0;entryDy=0;endArrow=none;strokeColor=#b85450;fillColor=#f8cecc;dashed=1;endFill=0;" edge="1" parent="1" source="9" target="39">
          <mxGeometry relative="1" as="geometry" />
        </mxCell>
        <mxCell id="V83d8pZ997Txuc6RfxCM-186" style="edgeStyle=orthogonalEdgeStyle;rounded=1;orthogonalLoop=1;jettySize=auto;html=1;exitX=1;exitY=0.5;exitDx=0;exitDy=0;endArrow=none;strokeColor=#b85450;fillColor=#f8cecc;dashed=1;endFill=0;" edge="1" parent="1" source="9" target="36">
          <mxGeometry relative="1" as="geometry" />
        </mxCell>
        <mxCell id="9" value="" style="ellipse;whiteSpace=wrap;html=1;aspect=fixed;fillColor=#f8cecc;strokeColor=#b85450;" parent="1" vertex="1">
          <mxGeometry x="460" y="70" width="20" height="20" as="geometry" />
        </mxCell>
        <mxCell id="13" value="" style="endArrow=none;dashed=1;html=1;fillColor=#dae8fc;strokeColor=#6c8ebf;" parent="1" target="12" edge="1">
          <mxGeometry width="50" height="50" relative="1" as="geometry">
            <mxPoint x="660" y="70" as="sourcePoint" />
            <mxPoint x="700" y="70" as="targetPoint" />
          </mxGeometry>
        </mxCell>
        <mxCell id="20" value="Hotfix" style="text;html=1;strokeColor=#b85450;fillColor=#f8cecc;align=center;verticalAlign=middle;whiteSpace=wrap;rounded=0;" parent="1" vertex="1">
          <mxGeometry x="920" y="70" width="90" height="20" as="geometry" />
        </mxCell>
        <mxCell id="23" style="edgeStyle=orthogonalEdgeStyle;rounded=1;orthogonalLoop=1;jettySize=auto;html=1;dashed=1;endArrow=none;endFill=0;fillColor=#d5e8d4;strokeColor=#82b366;" parent="1" source="78" target="24" edge="1">
          <mxGeometry relative="1" as="geometry">
            <mxPoint x="700" y="180" as="targetPoint" />
          </mxGeometry>
        </mxCell>
        <mxCell id="73" style="edgeStyle=orthogonalEdgeStyle;rounded=1;orthogonalLoop=1;jettySize=auto;html=1;dashed=1;endArrow=none;endFill=0;fontSize=10;fontColor=#FFB570;fillColor=#e1d5e7;strokeColor=#9673a6;" parent="1" source="21" target="51" edge="1">
          <mxGeometry relative="1" as="geometry">
            <Array as="points">
              <mxPoint x="90" y="190" />
            </Array>
          </mxGeometry>
        </mxCell>
        <mxCell id="21" value="" style="ellipse;whiteSpace=wrap;html=1;aspect=fixed;fillColor=#d5e8d4;strokeColor=#82b366;" parent="1" vertex="1">
          <mxGeometry x="80" y="170" width="20" height="20" as="geometry" />
        </mxCell>
        <mxCell id="24" value="1.0-dev" style="text;html=1;strokeColor=#82b366;fillColor=#d5e8d4;align=center;verticalAlign=middle;whiteSpace=wrap;rounded=0;" parent="1" vertex="1">
          <mxGeometry x="920" y="170" width="90" height="20" as="geometry" />
        </mxCell>
        <mxCell id="25" value="" style="ellipse;whiteSpace=wrap;html=1;aspect=fixed;fillColor=#d5e8d4;strokeColor=#82b366;" parent="1" vertex="1">
          <mxGeometry x="166.97" y="170" width="20" height="20" as="geometry" />
        </mxCell>
        <mxCell id="26" style="edgeStyle=orthogonalEdgeStyle;rounded=1;orthogonalLoop=1;jettySize=auto;html=1;dashed=1;endArrow=none;endFill=0;fillColor=#d5e8d4;strokeColor=#82b366;" parent="1" source="21" target="25" edge="1">
          <mxGeometry relative="1" as="geometry">
            <mxPoint x="680" y="180" as="targetPoint" />
            <mxPoint x="110" y="180" as="sourcePoint" />
          </mxGeometry>
        </mxCell>
        <mxCell id="114" style="edgeStyle=orthogonalEdgeStyle;rounded=1;orthogonalLoop=1;jettySize=auto;html=1;dashed=1;endArrow=none;endFill=0;fontSize=12;fontColor=#FFB570;fillColor=#e1d5e7;strokeColor=#9673a6;entryX=0;entryY=0.5;entryDx=0;entryDy=0;" parent="1" source="27" target="65" edge="1">
          <mxGeometry relative="1" as="geometry">
            <Array as="points">
              <mxPoint x="280" y="240" />
            </Array>
          </mxGeometry>
        </mxCell>
        <mxCell id="27" value="" style="ellipse;whiteSpace=wrap;html=1;aspect=fixed;fillColor=#d5e8d4;strokeColor=#82b366;" parent="1" vertex="1">
          <mxGeometry x="269.97" y="170" width="20" height="20" as="geometry" />
        </mxCell>
        <mxCell id="28" style="edgeStyle=orthogonalEdgeStyle;rounded=1;orthogonalLoop=1;jettySize=auto;html=1;dashed=1;endArrow=none;endFill=0;fillColor=#d5e8d4;strokeColor=#82b366;" parent="1" source="25" target="27" edge="1">
          <mxGeometry relative="1" as="geometry">
            <mxPoint x="680" y="180" as="targetPoint" />
            <mxPoint x="240" y="180" as="sourcePoint" />
          </mxGeometry>
        </mxCell>
        <mxCell id="44" style="edgeStyle=orthogonalEdgeStyle;rounded=1;orthogonalLoop=1;jettySize=auto;html=1;dashed=1;endArrow=none;endFill=0;fontSize=10;fontColor=#FFB570;fillColor=#ffe6cc;strokeColor=#d79b00;" parent="1" source="29" target="39" edge="1">
          <mxGeometry relative="1" as="geometry">
            <Array as="points">
              <mxPoint x="400" y="130" />
            </Array>
          </mxGeometry>
        </mxCell>
        <mxCell id="V83d8pZ997Txuc6RfxCM-225" value="" style="edgeStyle=orthogonalEdgeStyle;rounded=1;orthogonalLoop=1;jettySize=auto;html=1;endArrow=none;strokeColor=#82b366;dashed=1;endFill=0;fillColor=#d5e8d4;" edge="1" parent="1" source="29" target="V83d8pZ997Txuc6RfxCM-224">
          <mxGeometry relative="1" as="geometry" />
        </mxCell>
        <mxCell id="29" value="" style="ellipse;whiteSpace=wrap;html=1;aspect=fixed;fillColor=#d5e8d4;strokeColor=#82b366;" parent="1" vertex="1">
          <mxGeometry x="389.97" y="170" width="20" height="20" as="geometry" />
        </mxCell>
        <mxCell id="30" style="edgeStyle=orthogonalEdgeStyle;rounded=1;orthogonalLoop=1;jettySize=auto;html=1;dashed=1;endArrow=none;endFill=0;fillColor=#d5e8d4;strokeColor=#82b366;" parent="1" source="27" target="29" edge="1">
          <mxGeometry relative="1" as="geometry">
            <mxPoint x="680" y="180" as="targetPoint" />
            <mxPoint x="370" y="180" as="sourcePoint" />
          </mxGeometry>
        </mxCell>
        <mxCell id="V83d8pZ997Txuc6RfxCM-182" style="edgeStyle=orthogonalEdgeStyle;rounded=1;orthogonalLoop=1;jettySize=auto;html=1;entryX=0;entryY=0.5;entryDx=0;entryDy=0;endArrow=none;fontSize=10;strokeColor=#d79b00;fontColor=#FFB570;dashed=1;endFill=0;fillColor=#ffe6cc;" edge="1" parent="1" source="36" target="160">
          <mxGeometry relative="1" as="geometry" />
        </mxCell>
        <mxCell id="V83d8pZ997Txuc6RfxCM-196" style="edgeStyle=orthogonalEdgeStyle;rounded=1;orthogonalLoop=1;jettySize=auto;html=1;entryX=0;entryY=0.5;entryDx=0;entryDy=0;endArrow=none;strokeColor=#b85450;fillColor=#f8cecc;dashed=1;endFill=0;" edge="1" parent="1" source="36" target="V83d8pZ997Txuc6RfxCM-189">
          <mxGeometry relative="1" as="geometry" />
        </mxCell>
        <mxCell id="V83d8pZ997Txuc6RfxCM-220" value="" style="rounded=0;orthogonalLoop=1;jettySize=auto;html=1;dashed=1;" edge="1" parent="1" source="36" target="V83d8pZ997Txuc6RfxCM-219">
          <mxGeometry relative="1" as="geometry" />
        </mxCell>
        <mxCell id="36" value="CW12.1" style="ellipse;whiteSpace=wrap;html=1;aspect=fixed;fontSize=10;labelPosition=center;verticalLabelPosition=top;align=center;verticalAlign=bottom;fillColor=#ffe6cc;strokeColor=#d79b00;fontColor=#FFB570;" parent="1" vertex="1">
          <mxGeometry x="520" y="120" width="20" height="20" as="geometry" />
        </mxCell>
        <mxCell id="41" style="edgeStyle=orthogonalEdgeStyle;rounded=1;orthogonalLoop=1;jettySize=auto;html=1;dashed=1;endArrow=none;endFill=0;fontSize=10;fontColor=#FFB570;fillColor=#ffe6cc;strokeColor=#d79b00;" parent="1" source="39" target="36" edge="1">
          <mxGeometry relative="1" as="geometry" />
        </mxCell>
        <mxCell id="39" value="CW12" style="ellipse;whiteSpace=wrap;html=1;aspect=fixed;fontSize=10;labelPosition=center;verticalLabelPosition=top;align=center;verticalAlign=bottom;fillColor=#ffe6cc;strokeColor=#d79b00;fontColor=#FFB570;" parent="1" vertex="1">
          <mxGeometry x="414.65999999999997" y="120" width="20" height="20" as="geometry" />
        </mxCell>
        <mxCell id="42" value="Release" style="text;html=1;strokeColor=#d79b00;fillColor=#ffe6cc;align=center;verticalAlign=middle;whiteSpace=wrap;rounded=0;fontSize=12;" parent="1" vertex="1">
          <mxGeometry x="920" y="120" width="90" height="20" as="geometry" />
        </mxCell>
        <mxCell id="99" style="edgeStyle=orthogonalEdgeStyle;rounded=1;orthogonalLoop=1;jettySize=auto;html=1;dashed=1;endArrow=none;endFill=0;fontSize=12;fontColor=#FFB570;fillColor=#e1d5e7;strokeColor=#9673a6;" parent="1" source="65" target="71" edge="1">
          <mxGeometry relative="1" as="geometry" />
        </mxCell>
        <mxCell id="65" value="" style="ellipse;whiteSpace=wrap;html=1;aspect=fixed;fontSize=10;fillColor=#e1d5e7;strokeColor=#9673a6;" parent="1" vertex="1">
          <mxGeometry x="289.97" y="230" width="20" height="20" as="geometry" />
        </mxCell>
        <mxCell id="100" style="edgeStyle=orthogonalEdgeStyle;rounded=1;orthogonalLoop=1;jettySize=auto;html=1;dashed=1;endArrow=none;endFill=0;fontSize=12;fontColor=#FFB570;fillColor=#e1d5e7;strokeColor=#9673a6;entryX=0;entryY=0.5;entryDx=0;entryDy=0;" parent="1" source="71" target="29" edge="1">
          <mxGeometry relative="1" as="geometry">
            <mxPoint x="400" y="190" as="targetPoint" />
            <Array as="points">
              <mxPoint x="380" y="240" />
              <mxPoint x="380" y="180" />
            </Array>
          </mxGeometry>
        </mxCell>
        <mxCell id="71" value="" style="ellipse;whiteSpace=wrap;html=1;aspect=fixed;fontSize=10;fillColor=#e1d5e7;strokeColor=#9673a6;" parent="1" vertex="1">
          <mxGeometry x="345.97" y="230" width="20" height="20" as="geometry" />
        </mxCell>
        <mxCell id="82" style="edgeStyle=orthogonalEdgeStyle;rounded=1;orthogonalLoop=1;jettySize=auto;html=1;dashed=1;endArrow=none;endFill=0;fillColor=#d5e8d4;strokeColor=#82b366;startArrow=none;" parent="1" source="V83d8pZ997Txuc6RfxCM-219" target="92" edge="1">
          <mxGeometry relative="1" as="geometry">
            <mxPoint x="500" y="160" as="targetPoint" />
            <mxPoint x="460" y="160" as="sourcePoint" />
          </mxGeometry>
        </mxCell>
        <mxCell id="86" value="Feature" style="text;html=1;strokeColor=#9673a6;fillColor=#e1d5e7;align=center;verticalAlign=middle;whiteSpace=wrap;rounded=0;" parent="1" vertex="1">
          <mxGeometry x="920" y="230" width="90" height="20" as="geometry" />
        </mxCell>
        <mxCell id="164" style="edgeStyle=orthogonalEdgeStyle;rounded=1;orthogonalLoop=1;jettySize=auto;html=1;dashed=1;endArrow=none;endFill=0;fontSize=12;fontColor=#FFB570;fillColor=#ffe6cc;strokeColor=#d79b00;" parent="1" target="103" edge="1">
          <mxGeometry relative="1" as="geometry">
            <mxPoint x="454.6600000000001" y="150" as="sourcePoint" />
          </mxGeometry>
        </mxCell>
        <mxCell id="V83d8pZ997Txuc6RfxCM-299" style="edgeStyle=orthogonalEdgeStyle;shape=connector;rounded=1;orthogonalLoop=1;jettySize=auto;html=1;exitX=0.5;exitY=1;exitDx=0;exitDy=0;entryX=0;entryY=0.5;entryDx=0;entryDy=0;dashed=1;labelBackgroundColor=default;strokeColor=#82b366;fontFamily=Helvetica;fontSize=11;fontColor=default;endArrow=none;endFill=0;fillColor=#d5e8d4;" edge="1" parent="1" source="92" target="168">
          <mxGeometry relative="1" as="geometry" />
        </mxCell>
        <mxCell id="92" value="" style="ellipse;whiteSpace=wrap;html=1;aspect=fixed;fontSize=10;fillColor=#d5e8d4;strokeColor=#82b366;" parent="1" vertex="1">
          <mxGeometry x="695" y="170" width="20" height="20" as="geometry" />
        </mxCell>
        <mxCell id="78" value="" style="ellipse;whiteSpace=wrap;html=1;aspect=fixed;fontSize=12;fillColor=#d5e8d4;strokeColor=#82b366;" parent="1" vertex="1">
          <mxGeometry x="750" y="170" width="20" height="20" as="geometry" />
        </mxCell>
        <mxCell id="146" style="edgeStyle=orthogonalEdgeStyle;rounded=1;orthogonalLoop=1;jettySize=auto;html=1;dashed=1;endArrow=none;endFill=0;fillColor=#d5e8d4;strokeColor=#82b366;" parent="1" source="92" target="78" edge="1">
          <mxGeometry relative="1" as="geometry">
            <mxPoint x="760" y="160" as="targetPoint" />
            <mxPoint x="670" y="160" as="sourcePoint" />
            <Array as="points" />
          </mxGeometry>
        </mxCell>
        <mxCell id="V83d8pZ997Txuc6RfxCM-294" style="shape=connector;rounded=0;orthogonalLoop=1;jettySize=auto;html=1;exitX=1;exitY=0.5;exitDx=0;exitDy=0;entryX=0.5;entryY=0;entryDx=0;entryDy=0;dashed=1;labelBackgroundColor=default;strokeColor=default;fontFamily=Helvetica;fontSize=11;fontColor=default;endArrow=classic;endFill=0;fillColor=#d5e8d4;" edge="1" parent="1" source="160" target="92">
          <mxGeometry relative="1" as="geometry" />
        </mxCell>
        <mxCell id="160" value="CW12.2" style="ellipse;whiteSpace=wrap;html=1;aspect=fixed;fontSize=10;fillColor=#ffe6cc;strokeColor=#d79b00;labelPosition=center;verticalLabelPosition=top;align=center;verticalAlign=bottom;fontColor=#FFB570;" parent="1" vertex="1">
          <mxGeometry x="630" y="120" width="20" height="20" as="geometry" />
        </mxCell>
        <mxCell id="170" style="edgeStyle=orthogonalEdgeStyle;rounded=1;orthogonalLoop=1;jettySize=auto;html=1;dashed=1;endArrow=none;endFill=0;fontSize=12;fontColor=#FFB570;fillColor=#e1d5e7;strokeColor=#9673a6;" parent="1" source="168" target="86" edge="1">
          <mxGeometry relative="1" as="geometry" />
        </mxCell>
        <mxCell id="168" value="" style="ellipse;whiteSpace=wrap;html=1;aspect=fixed;fontSize=12;fillColor=#e1d5e7;strokeColor=#9673a6;" parent="1" vertex="1">
          <mxGeometry x="760" y="230" width="20" height="20" as="geometry" />
        </mxCell>
        <mxCell id="V83d8pZ997Txuc6RfxCM-179" value="" style="edgeStyle=orthogonalEdgeStyle;rounded=1;orthogonalLoop=1;jettySize=auto;html=1;endArrow=none;fontSize=12;strokeColor=#9673a6;fontColor=#FFB570;dashed=1;endFill=0;fillColor=#e1d5e7;" edge="1" parent="1" source="51" target="25">
          <mxGeometry relative="1" as="geometry" />
        </mxCell>
        <mxCell id="51" value="" style="ellipse;whiteSpace=wrap;html=1;aspect=fixed;fontSize=10;fillColor=#e1d5e7;strokeColor=#9673a6;" parent="1" vertex="1">
          <mxGeometry x="119.97" y="200" width="20" height="20" as="geometry" />
        </mxCell>
        <mxCell id="V83d8pZ997Txuc6RfxCM-180" value="HPC_GEN2" style="text;html=1;strokeColor=none;fillColor=none;align=center;verticalAlign=middle;whiteSpace=wrap;rounded=0;" vertex="1" parent="1">
          <mxGeometry x="480" y="10" width="60" height="30" as="geometry" />
        </mxCell>
        <mxCell id="V83d8pZ997Txuc6RfxCM-188" style="edgeStyle=orthogonalEdgeStyle;rounded=1;orthogonalLoop=1;jettySize=auto;html=1;exitX=1;exitY=0.5;exitDx=0;exitDy=0;endArrow=none;strokeColor=#b85450;fillColor=#f8cecc;dashed=1;endFill=0;" edge="1" parent="1" source="V83d8pZ997Txuc6RfxCM-189">
          <mxGeometry relative="1" as="geometry">
            <mxPoint x="637" y="119" as="targetPoint" />
          </mxGeometry>
        </mxCell>
        <mxCell id="V83d8pZ997Txuc6RfxCM-189" value="" style="ellipse;whiteSpace=wrap;html=1;aspect=fixed;fillColor=#f8cecc;strokeColor=#b85450;" vertex="1" parent="1">
          <mxGeometry x="590" y="70" width="20" height="20" as="geometry" />
        </mxCell>
        <mxCell id="V83d8pZ997Txuc6RfxCM-200" style="edgeStyle=orthogonalEdgeStyle;rounded=1;orthogonalLoop=1;jettySize=auto;html=1;exitX=0;exitY=0.5;exitDx=0;exitDy=0;entryX=0.5;entryY=0;entryDx=0;entryDy=0;endArrow=none;strokeColor=#b85450;fillColor=#f8cecc;dashed=1;endFill=0;" edge="1" parent="1" source="V83d8pZ997Txuc6RfxCM-202" target="V83d8pZ997Txuc6RfxCM-208">
          <mxGeometry relative="1" as="geometry" />
        </mxCell>
        <mxCell id="V83d8pZ997Txuc6RfxCM-201" style="edgeStyle=orthogonalEdgeStyle;rounded=1;orthogonalLoop=1;jettySize=auto;html=1;exitX=1;exitY=0.5;exitDx=0;exitDy=0;endArrow=none;strokeColor=#b85450;fillColor=#f8cecc;dashed=1;endFill=0;" edge="1" parent="1" source="V83d8pZ997Txuc6RfxCM-202" target="V83d8pZ997Txuc6RfxCM-206">
          <mxGeometry relative="1" as="geometry" />
        </mxCell>
        <mxCell id="V83d8pZ997Txuc6RfxCM-202" value="" style="ellipse;whiteSpace=wrap;html=1;aspect=fixed;fillColor=#f8cecc;strokeColor=#b85450;" vertex="1" parent="1">
          <mxGeometry x="150" y="70" width="20" height="20" as="geometry" />
        </mxCell>
        <mxCell id="V83d8pZ997Txuc6RfxCM-203" style="edgeStyle=orthogonalEdgeStyle;rounded=1;orthogonalLoop=1;jettySize=auto;html=1;dashed=1;endArrow=none;endFill=0;fontSize=10;fontColor=#FFB570;fillColor=#ffe6cc;strokeColor=#d79b00;" edge="1" parent="1" target="V83d8pZ997Txuc6RfxCM-208">
          <mxGeometry relative="1" as="geometry">
            <Array as="points">
              <mxPoint x="90" y="130" />
            </Array>
            <mxPoint x="90" y="170" as="sourcePoint" />
          </mxGeometry>
        </mxCell>
        <mxCell id="V83d8pZ997Txuc6RfxCM-204" style="edgeStyle=orthogonalEdgeStyle;rounded=1;orthogonalLoop=1;jettySize=auto;html=1;entryX=0;entryY=0.5;entryDx=0;entryDy=0;endArrow=none;fontSize=10;strokeColor=#d79b00;fontColor=#FFB570;dashed=1;endFill=0;fillColor=#ffe6cc;" edge="1" parent="1" source="V83d8pZ997Txuc6RfxCM-206" target="V83d8pZ997Txuc6RfxCM-209">
          <mxGeometry relative="1" as="geometry" />
        </mxCell>
        <mxCell id="V83d8pZ997Txuc6RfxCM-205" style="edgeStyle=orthogonalEdgeStyle;rounded=1;orthogonalLoop=1;jettySize=auto;html=1;entryX=0;entryY=0.5;entryDx=0;entryDy=0;endArrow=none;strokeColor=#b85450;fillColor=#f8cecc;dashed=1;endFill=0;" edge="1" parent="1" source="V83d8pZ997Txuc6RfxCM-206" target="V83d8pZ997Txuc6RfxCM-211">
          <mxGeometry relative="1" as="geometry" />
        </mxCell>
        <mxCell id="V83d8pZ997Txuc6RfxCM-206" value="CW10.1" style="ellipse;whiteSpace=wrap;html=1;aspect=fixed;fontSize=10;labelPosition=center;verticalLabelPosition=top;align=center;verticalAlign=bottom;fillColor=#ffe6cc;strokeColor=#d79b00;fontColor=#FFB570;" vertex="1" parent="1">
          <mxGeometry x="210" y="120" width="20" height="20" as="geometry" />
        </mxCell>
        <mxCell id="V83d8pZ997Txuc6RfxCM-207" style="edgeStyle=orthogonalEdgeStyle;rounded=1;orthogonalLoop=1;jettySize=auto;html=1;dashed=1;endArrow=none;endFill=0;fontSize=10;fontColor=#FFB570;fillColor=#ffe6cc;strokeColor=#d79b00;" edge="1" parent="1" source="V83d8pZ997Txuc6RfxCM-208" target="V83d8pZ997Txuc6RfxCM-206">
          <mxGeometry relative="1" as="geometry" />
        </mxCell>
        <mxCell id="V83d8pZ997Txuc6RfxCM-208" value="CW10" style="ellipse;whiteSpace=wrap;html=1;aspect=fixed;fontSize=10;labelPosition=center;verticalLabelPosition=top;align=center;verticalAlign=bottom;fillColor=#ffe6cc;strokeColor=#d79b00;fontColor=#FFB570;" vertex="1" parent="1">
          <mxGeometry x="104.65999999999997" y="120" width="20" height="20" as="geometry" />
        </mxCell>
        <mxCell id="V83d8pZ997Txuc6RfxCM-209" value="CW10.2" style="ellipse;whiteSpace=wrap;html=1;aspect=fixed;fontSize=10;fillColor=#ffe6cc;strokeColor=#d79b00;labelPosition=center;verticalLabelPosition=top;align=center;verticalAlign=bottom;fontColor=#FFB570;" vertex="1" parent="1">
          <mxGeometry x="320" y="120" width="20" height="20" as="geometry" />
        </mxCell>
        <mxCell id="V83d8pZ997Txuc6RfxCM-210" style="edgeStyle=orthogonalEdgeStyle;rounded=1;orthogonalLoop=1;jettySize=auto;html=1;exitX=1;exitY=0.5;exitDx=0;exitDy=0;endArrow=none;strokeColor=#b85450;fillColor=#f8cecc;dashed=1;endFill=0;" edge="1" parent="1" source="V83d8pZ997Txuc6RfxCM-211">
          <mxGeometry relative="1" as="geometry">
            <mxPoint x="327" y="119" as="targetPoint" />
          </mxGeometry>
        </mxCell>
        <mxCell id="V83d8pZ997Txuc6RfxCM-211" value="" style="ellipse;whiteSpace=wrap;html=1;aspect=fixed;fillColor=#f8cecc;strokeColor=#b85450;" vertex="1" parent="1">
          <mxGeometry x="280" y="70" width="20" height="20" as="geometry" />
        </mxCell>
        <mxCell id="V83d8pZ997Txuc6RfxCM-212" value="" style="endArrow=none;html=1;rounded=0;" edge="1" parent="1">
          <mxGeometry width="50" height="50" relative="1" as="geometry">
            <mxPoint x="80" y="320" as="sourcePoint" />
            <mxPoint x="910" y="320" as="targetPoint" />
          </mxGeometry>
        </mxCell>
        <mxCell id="V83d8pZ997Txuc6RfxCM-213" value="HPC_X" style="text;html=1;strokeColor=none;fillColor=none;align=center;verticalAlign=middle;whiteSpace=wrap;rounded=0;" vertex="1" parent="1">
          <mxGeometry x="470" y="330" width="60" height="30" as="geometry" />
        </mxCell>
        <mxCell id="V83d8pZ997Txuc6RfxCM-219" value="" style="ellipse;whiteSpace=wrap;html=1;aspect=fixed;fontSize=10;labelPosition=center;verticalLabelPosition=top;align=center;verticalAlign=middle;fillColor=#d5e8d4;strokeColor=#82b366;fontColor=default;" vertex="1" parent="1">
          <mxGeometry x="590" y="170" width="20" height="20" as="geometry" />
        </mxCell>
        <mxCell id="V83d8pZ997Txuc6RfxCM-230" value="" style="edgeStyle=orthogonalEdgeStyle;shape=connector;rounded=1;orthogonalLoop=1;jettySize=auto;html=1;dashed=1;labelBackgroundColor=default;strokeColor=#82b366;fontFamily=Helvetica;fontSize=11;fontColor=default;endArrow=none;endFill=0;fillColor=#d5e8d4;" edge="1" parent="1" source="V83d8pZ997Txuc6RfxCM-224" target="V83d8pZ997Txuc6RfxCM-229">
          <mxGeometry relative="1" as="geometry" />
        </mxCell>
        <mxCell id="V83d8pZ997Txuc6RfxCM-224" value="" style="ellipse;whiteSpace=wrap;html=1;aspect=fixed;fillColor=#d5e8d4;strokeColor=#82b366;" vertex="1" parent="1">
          <mxGeometry x="450" y="170" width="20" height="20" as="geometry" />
        </mxCell>
        <mxCell id="V83d8pZ997Txuc6RfxCM-231" value="" style="edgeStyle=orthogonalEdgeStyle;shape=connector;rounded=1;orthogonalLoop=1;jettySize=auto;html=1;dashed=1;labelBackgroundColor=default;strokeColor=#82b366;fontFamily=Helvetica;fontSize=11;fontColor=default;endArrow=none;endFill=0;fillColor=#d5e8d4;" edge="1" parent="1" source="V83d8pZ997Txuc6RfxCM-229" target="V83d8pZ997Txuc6RfxCM-219">
          <mxGeometry relative="1" as="geometry" />
        </mxCell>
        <mxCell id="V83d8pZ997Txuc6RfxCM-229" value="" style="ellipse;whiteSpace=wrap;html=1;aspect=fixed;fillColor=#d5e8d4;strokeColor=#82b366;" vertex="1" parent="1">
          <mxGeometry x="510.0000000000001" y="170" width="20" height="20" as="geometry" />
        </mxCell>
        <mxCell id="V83d8pZ997Txuc6RfxCM-232" style="edgeStyle=orthogonalEdgeStyle;rounded=1;orthogonalLoop=1;jettySize=auto;html=1;exitX=0;exitY=0.5;exitDx=0;exitDy=0;entryX=0.5;entryY=0;entryDx=0;entryDy=0;endArrow=none;strokeColor=#b85450;fillColor=#f8cecc;dashed=1;endFill=0;" edge="1" parent="1" source="V83d8pZ997Txuc6RfxCM-234" target="V83d8pZ997Txuc6RfxCM-254">
          <mxGeometry relative="1" as="geometry" />
        </mxCell>
        <mxCell id="V83d8pZ997Txuc6RfxCM-233" style="edgeStyle=orthogonalEdgeStyle;rounded=1;orthogonalLoop=1;jettySize=auto;html=1;exitX=1;exitY=0.5;exitDx=0;exitDy=0;endArrow=none;strokeColor=#b85450;fillColor=#f8cecc;dashed=1;endFill=0;" edge="1" parent="1" source="V83d8pZ997Txuc6RfxCM-234" target="V83d8pZ997Txuc6RfxCM-252">
          <mxGeometry relative="1" as="geometry" />
        </mxCell>
        <mxCell id="V83d8pZ997Txuc6RfxCM-234" value="" style="ellipse;whiteSpace=wrap;html=1;aspect=fixed;fillColor=#f8cecc;strokeColor=#b85450;" vertex="1" parent="1">
          <mxGeometry x="460" y="370" width="20" height="20" as="geometry" />
        </mxCell>
        <mxCell id="V83d8pZ997Txuc6RfxCM-235" value="Hotfix" style="text;html=1;strokeColor=#b85450;fillColor=#f8cecc;align=center;verticalAlign=middle;whiteSpace=wrap;rounded=0;" vertex="1" parent="1">
          <mxGeometry x="920" y="370" width="90" height="20" as="geometry" />
        </mxCell>
        <mxCell id="V83d8pZ997Txuc6RfxCM-236" style="edgeStyle=orthogonalEdgeStyle;rounded=1;orthogonalLoop=1;jettySize=auto;html=1;dashed=1;endArrow=none;endFill=0;fillColor=#d5e8d4;strokeColor=#82b366;" edge="1" parent="1" source="V83d8pZ997Txuc6RfxCM-264" target="V83d8pZ997Txuc6RfxCM-239">
          <mxGeometry relative="1" as="geometry">
            <mxPoint x="700" y="480" as="targetPoint" />
          </mxGeometry>
        </mxCell>
        <mxCell id="V83d8pZ997Txuc6RfxCM-237" style="edgeStyle=orthogonalEdgeStyle;rounded=1;orthogonalLoop=1;jettySize=auto;html=1;dashed=1;endArrow=none;endFill=0;fontSize=10;fontColor=#FFB570;fillColor=#e1d5e7;strokeColor=#9673a6;" edge="1" parent="1" source="V83d8pZ997Txuc6RfxCM-238" target="V83d8pZ997Txuc6RfxCM-270">
          <mxGeometry relative="1" as="geometry">
            <Array as="points">
              <mxPoint x="90" y="490" />
            </Array>
          </mxGeometry>
        </mxCell>
        <mxCell id="V83d8pZ997Txuc6RfxCM-238" value="" style="ellipse;whiteSpace=wrap;html=1;aspect=fixed;fillColor=#d5e8d4;strokeColor=#82b366;" vertex="1" parent="1">
          <mxGeometry x="80" y="470" width="20" height="20" as="geometry" />
        </mxCell>
        <mxCell id="V83d8pZ997Txuc6RfxCM-239" value="1.0-dev" style="text;html=1;strokeColor=#82b366;fillColor=#d5e8d4;align=center;verticalAlign=middle;whiteSpace=wrap;rounded=0;" vertex="1" parent="1">
          <mxGeometry x="920" y="470" width="90" height="20" as="geometry" />
        </mxCell>
        <mxCell id="V83d8pZ997Txuc6RfxCM-240" value="" style="ellipse;whiteSpace=wrap;html=1;aspect=fixed;fillColor=#d5e8d4;strokeColor=#82b366;" vertex="1" parent="1">
          <mxGeometry x="166.97" y="470" width="20" height="20" as="geometry" />
        </mxCell>
        <mxCell id="V83d8pZ997Txuc6RfxCM-241" style="edgeStyle=orthogonalEdgeStyle;rounded=1;orthogonalLoop=1;jettySize=auto;html=1;dashed=1;endArrow=none;endFill=0;fillColor=#d5e8d4;strokeColor=#82b366;" edge="1" parent="1" source="V83d8pZ997Txuc6RfxCM-238" target="V83d8pZ997Txuc6RfxCM-240">
          <mxGeometry relative="1" as="geometry">
            <mxPoint x="680" y="480" as="targetPoint" />
            <mxPoint x="110" y="480" as="sourcePoint" />
          </mxGeometry>
        </mxCell>
        <mxCell id="V83d8pZ997Txuc6RfxCM-242" style="edgeStyle=orthogonalEdgeStyle;rounded=1;orthogonalLoop=1;jettySize=auto;html=1;dashed=1;endArrow=none;endFill=0;fontSize=12;fontColor=#FFB570;fillColor=#e1d5e7;strokeColor=#9673a6;entryX=0;entryY=0.5;entryDx=0;entryDy=0;" edge="1" parent="1" source="V83d8pZ997Txuc6RfxCM-243" target="V83d8pZ997Txuc6RfxCM-257">
          <mxGeometry relative="1" as="geometry">
            <Array as="points">
              <mxPoint x="280" y="540" />
            </Array>
          </mxGeometry>
        </mxCell>
        <mxCell id="V83d8pZ997Txuc6RfxCM-243" value="" style="ellipse;whiteSpace=wrap;html=1;aspect=fixed;fillColor=#d5e8d4;strokeColor=#82b366;" vertex="1" parent="1">
          <mxGeometry x="269.97" y="470" width="20" height="20" as="geometry" />
        </mxCell>
        <mxCell id="V83d8pZ997Txuc6RfxCM-244" style="edgeStyle=orthogonalEdgeStyle;rounded=1;orthogonalLoop=1;jettySize=auto;html=1;dashed=1;endArrow=none;endFill=0;fillColor=#d5e8d4;strokeColor=#82b366;" edge="1" parent="1" source="V83d8pZ997Txuc6RfxCM-240" target="V83d8pZ997Txuc6RfxCM-243">
          <mxGeometry relative="1" as="geometry">
            <mxPoint x="680" y="480" as="targetPoint" />
            <mxPoint x="240" y="480" as="sourcePoint" />
          </mxGeometry>
        </mxCell>
        <mxCell id="V83d8pZ997Txuc6RfxCM-245" style="edgeStyle=orthogonalEdgeStyle;rounded=1;orthogonalLoop=1;jettySize=auto;html=1;dashed=1;endArrow=none;endFill=0;fontSize=10;fontColor=#FFB570;fillColor=#ffe6cc;strokeColor=#d79b00;" edge="1" parent="1" source="V83d8pZ997Txuc6RfxCM-247" target="V83d8pZ997Txuc6RfxCM-254">
          <mxGeometry relative="1" as="geometry">
            <Array as="points">
              <mxPoint x="400" y="430" />
            </Array>
          </mxGeometry>
        </mxCell>
        <mxCell id="V83d8pZ997Txuc6RfxCM-246" value="" style="edgeStyle=orthogonalEdgeStyle;rounded=1;orthogonalLoop=1;jettySize=auto;html=1;endArrow=none;strokeColor=#82b366;dashed=1;endFill=0;fillColor=#d5e8d4;" edge="1" parent="1" source="V83d8pZ997Txuc6RfxCM-247" target="V83d8pZ997Txuc6RfxCM-287">
          <mxGeometry relative="1" as="geometry" />
        </mxCell>
        <mxCell id="V83d8pZ997Txuc6RfxCM-247" value="" style="ellipse;whiteSpace=wrap;html=1;aspect=fixed;fillColor=#d5e8d4;strokeColor=#82b366;" vertex="1" parent="1">
          <mxGeometry x="389.97" y="470" width="20" height="20" as="geometry" />
        </mxCell>
        <mxCell id="V83d8pZ997Txuc6RfxCM-248" style="edgeStyle=orthogonalEdgeStyle;rounded=1;orthogonalLoop=1;jettySize=auto;html=1;dashed=1;endArrow=none;endFill=0;fillColor=#d5e8d4;strokeColor=#82b366;" edge="1" parent="1" source="V83d8pZ997Txuc6RfxCM-243" target="V83d8pZ997Txuc6RfxCM-247">
          <mxGeometry relative="1" as="geometry">
            <mxPoint x="680" y="480" as="targetPoint" />
            <mxPoint x="370" y="480" as="sourcePoint" />
          </mxGeometry>
        </mxCell>
        <mxCell id="V83d8pZ997Txuc6RfxCM-249" style="edgeStyle=orthogonalEdgeStyle;rounded=1;orthogonalLoop=1;jettySize=auto;html=1;entryX=0;entryY=0.5;entryDx=0;entryDy=0;endArrow=none;fontSize=10;strokeColor=#d79b00;fontColor=#FFB570;dashed=1;endFill=0;fillColor=#ffe6cc;" edge="1" parent="1" source="V83d8pZ997Txuc6RfxCM-252" target="V83d8pZ997Txuc6RfxCM-266">
          <mxGeometry relative="1" as="geometry" />
        </mxCell>
        <mxCell id="V83d8pZ997Txuc6RfxCM-250" style="edgeStyle=orthogonalEdgeStyle;rounded=1;orthogonalLoop=1;jettySize=auto;html=1;entryX=0;entryY=0.5;entryDx=0;entryDy=0;endArrow=none;strokeColor=#b85450;fillColor=#f8cecc;dashed=1;endFill=0;" edge="1" parent="1" source="V83d8pZ997Txuc6RfxCM-252" target="V83d8pZ997Txuc6RfxCM-272">
          <mxGeometry relative="1" as="geometry" />
        </mxCell>
        <mxCell id="V83d8pZ997Txuc6RfxCM-251" value="" style="rounded=0;orthogonalLoop=1;jettySize=auto;html=1;dashed=1;" edge="1" parent="1" source="V83d8pZ997Txuc6RfxCM-252" target="V83d8pZ997Txuc6RfxCM-285">
          <mxGeometry relative="1" as="geometry" />
        </mxCell>
        <mxCell id="V83d8pZ997Txuc6RfxCM-252" value="CW12.1" style="ellipse;whiteSpace=wrap;html=1;aspect=fixed;fontSize=10;labelPosition=center;verticalLabelPosition=top;align=center;verticalAlign=bottom;fillColor=#ffe6cc;strokeColor=#d79b00;fontColor=#FFB570;" vertex="1" parent="1">
          <mxGeometry x="520" y="420" width="20" height="20" as="geometry" />
        </mxCell>
        <mxCell id="V83d8pZ997Txuc6RfxCM-253" style="edgeStyle=orthogonalEdgeStyle;rounded=1;orthogonalLoop=1;jettySize=auto;html=1;dashed=1;endArrow=none;endFill=0;fontSize=10;fontColor=#FFB570;fillColor=#ffe6cc;strokeColor=#d79b00;" edge="1" parent="1" source="V83d8pZ997Txuc6RfxCM-254" target="V83d8pZ997Txuc6RfxCM-252">
          <mxGeometry relative="1" as="geometry" />
        </mxCell>
        <mxCell id="V83d8pZ997Txuc6RfxCM-254" value="CW12" style="ellipse;whiteSpace=wrap;html=1;aspect=fixed;fontSize=10;labelPosition=center;verticalLabelPosition=top;align=center;verticalAlign=bottom;fillColor=#ffe6cc;strokeColor=#d79b00;fontColor=#FFB570;" vertex="1" parent="1">
          <mxGeometry x="414.65999999999997" y="420" width="20" height="20" as="geometry" />
        </mxCell>
        <mxCell id="V83d8pZ997Txuc6RfxCM-255" value="Release" style="text;html=1;strokeColor=#d79b00;fillColor=#ffe6cc;align=center;verticalAlign=middle;whiteSpace=wrap;rounded=0;fontSize=12;" vertex="1" parent="1">
          <mxGeometry x="920" y="420" width="90" height="20" as="geometry" />
        </mxCell>
        <mxCell id="V83d8pZ997Txuc6RfxCM-256" style="edgeStyle=orthogonalEdgeStyle;rounded=1;orthogonalLoop=1;jettySize=auto;html=1;dashed=1;endArrow=none;endFill=0;fontSize=12;fontColor=#FFB570;fillColor=#e1d5e7;strokeColor=#9673a6;" edge="1" parent="1" source="V83d8pZ997Txuc6RfxCM-257" target="V83d8pZ997Txuc6RfxCM-259">
          <mxGeometry relative="1" as="geometry" />
        </mxCell>
        <mxCell id="V83d8pZ997Txuc6RfxCM-257" value="" style="ellipse;whiteSpace=wrap;html=1;aspect=fixed;fontSize=10;fillColor=#e1d5e7;strokeColor=#9673a6;" vertex="1" parent="1">
          <mxGeometry x="289.97" y="530" width="20" height="20" as="geometry" />
        </mxCell>
        <mxCell id="V83d8pZ997Txuc6RfxCM-258" style="edgeStyle=orthogonalEdgeStyle;rounded=1;orthogonalLoop=1;jettySize=auto;html=1;dashed=1;endArrow=none;endFill=0;fontSize=12;fontColor=#FFB570;fillColor=#e1d5e7;strokeColor=#9673a6;entryX=0;entryY=0.5;entryDx=0;entryDy=0;" edge="1" parent="1" source="V83d8pZ997Txuc6RfxCM-259" target="V83d8pZ997Txuc6RfxCM-247">
          <mxGeometry relative="1" as="geometry">
            <mxPoint x="400" y="490" as="targetPoint" />
            <Array as="points">
              <mxPoint x="380" y="540" />
              <mxPoint x="380" y="480" />
            </Array>
          </mxGeometry>
        </mxCell>
        <mxCell id="V83d8pZ997Txuc6RfxCM-259" value="" style="ellipse;whiteSpace=wrap;html=1;aspect=fixed;fontSize=10;fillColor=#e1d5e7;strokeColor=#9673a6;" vertex="1" parent="1">
          <mxGeometry x="345.97" y="530" width="20" height="20" as="geometry" />
        </mxCell>
        <mxCell id="V83d8pZ997Txuc6RfxCM-260" style="edgeStyle=orthogonalEdgeStyle;rounded=1;orthogonalLoop=1;jettySize=auto;html=1;dashed=1;endArrow=none;endFill=0;fillColor=#d5e8d4;strokeColor=#82b366;startArrow=none;" edge="1" parent="1" source="V83d8pZ997Txuc6RfxCM-285" target="V83d8pZ997Txuc6RfxCM-263">
          <mxGeometry relative="1" as="geometry">
            <mxPoint x="500" y="460" as="targetPoint" />
            <mxPoint x="460" y="460" as="sourcePoint" />
          </mxGeometry>
        </mxCell>
        <mxCell id="V83d8pZ997Txuc6RfxCM-261" value="Feature" style="text;html=1;strokeColor=#9673a6;fillColor=#e1d5e7;align=center;verticalAlign=middle;whiteSpace=wrap;rounded=0;" vertex="1" parent="1">
          <mxGeometry x="920" y="530" width="90" height="20" as="geometry" />
        </mxCell>
        <mxCell id="V83d8pZ997Txuc6RfxCM-262" style="edgeStyle=orthogonalEdgeStyle;rounded=1;orthogonalLoop=1;jettySize=auto;html=1;dashed=1;endArrow=none;endFill=0;fontSize=12;fontColor=#FFB570;fillColor=#e1d5e7;strokeColor=#9673a6;" edge="1" parent="1" source="V83d8pZ997Txuc6RfxCM-263" target="V83d8pZ997Txuc6RfxCM-268">
          <mxGeometry relative="1" as="geometry">
            <Array as="points">
              <mxPoint x="675" y="540" />
            </Array>
          </mxGeometry>
        </mxCell>
        <mxCell id="V83d8pZ997Txuc6RfxCM-263" value="" style="ellipse;whiteSpace=wrap;html=1;aspect=fixed;fontSize=10;fillColor=#d5e8d4;strokeColor=#82b366;" vertex="1" parent="1">
          <mxGeometry x="664.97" y="470" width="20" height="20" as="geometry" />
        </mxCell>
        <mxCell id="V83d8pZ997Txuc6RfxCM-264" value="" style="ellipse;whiteSpace=wrap;html=1;aspect=fixed;fontSize=12;fillColor=#d5e8d4;strokeColor=#82b366;" vertex="1" parent="1">
          <mxGeometry x="750" y="470" width="20" height="20" as="geometry" />
        </mxCell>
        <mxCell id="V83d8pZ997Txuc6RfxCM-265" style="edgeStyle=orthogonalEdgeStyle;rounded=1;orthogonalLoop=1;jettySize=auto;html=1;dashed=1;endArrow=none;endFill=0;fillColor=#d5e8d4;strokeColor=#82b366;" edge="1" parent="1" source="V83d8pZ997Txuc6RfxCM-263" target="V83d8pZ997Txuc6RfxCM-264">
          <mxGeometry relative="1" as="geometry">
            <mxPoint x="760" y="460" as="targetPoint" />
            <mxPoint x="670" y="460" as="sourcePoint" />
            <Array as="points" />
          </mxGeometry>
        </mxCell>
        <mxCell id="V83d8pZ997Txuc6RfxCM-266" value="CW12.2" style="ellipse;whiteSpace=wrap;html=1;aspect=fixed;fontSize=10;fillColor=#ffe6cc;strokeColor=#d79b00;labelPosition=center;verticalLabelPosition=top;align=center;verticalAlign=bottom;fontColor=#FFB570;" vertex="1" parent="1">
          <mxGeometry x="630" y="420" width="20" height="20" as="geometry" />
        </mxCell>
        <mxCell id="V83d8pZ997Txuc6RfxCM-267" style="edgeStyle=orthogonalEdgeStyle;rounded=1;orthogonalLoop=1;jettySize=auto;html=1;dashed=1;endArrow=none;endFill=0;fontSize=12;fontColor=#FFB570;fillColor=#e1d5e7;strokeColor=#9673a6;" edge="1" parent="1" source="V83d8pZ997Txuc6RfxCM-268" target="V83d8pZ997Txuc6RfxCM-261">
          <mxGeometry relative="1" as="geometry" />
        </mxCell>
        <mxCell id="V83d8pZ997Txuc6RfxCM-268" value="" style="ellipse;whiteSpace=wrap;html=1;aspect=fixed;fontSize=12;fillColor=#e1d5e7;strokeColor=#9673a6;" vertex="1" parent="1">
          <mxGeometry x="695" y="530" width="20" height="20" as="geometry" />
        </mxCell>
        <mxCell id="V83d8pZ997Txuc6RfxCM-269" value="" style="edgeStyle=orthogonalEdgeStyle;rounded=1;orthogonalLoop=1;jettySize=auto;html=1;endArrow=none;fontSize=12;strokeColor=#9673a6;fontColor=#FFB570;dashed=1;endFill=0;fillColor=#e1d5e7;" edge="1" parent="1" source="V83d8pZ997Txuc6RfxCM-270" target="V83d8pZ997Txuc6RfxCM-240">
          <mxGeometry relative="1" as="geometry" />
        </mxCell>
        <mxCell id="V83d8pZ997Txuc6RfxCM-270" value="" style="ellipse;whiteSpace=wrap;html=1;aspect=fixed;fontSize=10;fillColor=#e1d5e7;strokeColor=#9673a6;" vertex="1" parent="1">
          <mxGeometry x="119.97" y="500" width="20" height="20" as="geometry" />
        </mxCell>
        <mxCell id="V83d8pZ997Txuc6RfxCM-271" style="edgeStyle=orthogonalEdgeStyle;rounded=1;orthogonalLoop=1;jettySize=auto;html=1;exitX=1;exitY=0.5;exitDx=0;exitDy=0;endArrow=none;strokeColor=#b85450;fillColor=#f8cecc;dashed=1;endFill=0;" edge="1" parent="1" source="V83d8pZ997Txuc6RfxCM-272">
          <mxGeometry relative="1" as="geometry">
            <mxPoint x="637" y="419" as="targetPoint" />
          </mxGeometry>
        </mxCell>
        <mxCell id="V83d8pZ997Txuc6RfxCM-272" value="" style="ellipse;whiteSpace=wrap;html=1;aspect=fixed;fillColor=#f8cecc;strokeColor=#b85450;" vertex="1" parent="1">
          <mxGeometry x="590" y="370" width="20" height="20" as="geometry" />
        </mxCell>
        <mxCell id="V83d8pZ997Txuc6RfxCM-273" style="edgeStyle=orthogonalEdgeStyle;rounded=1;orthogonalLoop=1;jettySize=auto;html=1;exitX=0;exitY=0.5;exitDx=0;exitDy=0;entryX=0.5;entryY=0;entryDx=0;entryDy=0;endArrow=none;strokeColor=#b85450;fillColor=#f8cecc;dashed=1;endFill=0;" edge="1" parent="1" source="V83d8pZ997Txuc6RfxCM-275" target="V83d8pZ997Txuc6RfxCM-281">
          <mxGeometry relative="1" as="geometry" />
        </mxCell>
        <mxCell id="V83d8pZ997Txuc6RfxCM-274" style="edgeStyle=orthogonalEdgeStyle;rounded=1;orthogonalLoop=1;jettySize=auto;html=1;exitX=1;exitY=0.5;exitDx=0;exitDy=0;endArrow=none;strokeColor=#b85450;fillColor=#f8cecc;dashed=1;endFill=0;" edge="1" parent="1" source="V83d8pZ997Txuc6RfxCM-275" target="V83d8pZ997Txuc6RfxCM-279">
          <mxGeometry relative="1" as="geometry" />
        </mxCell>
        <mxCell id="V83d8pZ997Txuc6RfxCM-275" value="" style="ellipse;whiteSpace=wrap;html=1;aspect=fixed;fillColor=#f8cecc;strokeColor=#b85450;" vertex="1" parent="1">
          <mxGeometry x="150" y="370" width="20" height="20" as="geometry" />
        </mxCell>
        <mxCell id="V83d8pZ997Txuc6RfxCM-276" style="edgeStyle=orthogonalEdgeStyle;rounded=1;orthogonalLoop=1;jettySize=auto;html=1;dashed=1;endArrow=none;endFill=0;fontSize=10;fontColor=#FFB570;fillColor=#ffe6cc;strokeColor=#d79b00;" edge="1" parent="1" target="V83d8pZ997Txuc6RfxCM-281">
          <mxGeometry relative="1" as="geometry">
            <Array as="points">
              <mxPoint x="90" y="430" />
            </Array>
            <mxPoint x="90" y="470" as="sourcePoint" />
          </mxGeometry>
        </mxCell>
        <mxCell id="V83d8pZ997Txuc6RfxCM-277" style="edgeStyle=orthogonalEdgeStyle;rounded=1;orthogonalLoop=1;jettySize=auto;html=1;entryX=0;entryY=0.5;entryDx=0;entryDy=0;endArrow=none;fontSize=10;strokeColor=#d79b00;fontColor=#FFB570;dashed=1;endFill=0;fillColor=#ffe6cc;" edge="1" parent="1" source="V83d8pZ997Txuc6RfxCM-279" target="V83d8pZ997Txuc6RfxCM-282">
          <mxGeometry relative="1" as="geometry" />
        </mxCell>
        <mxCell id="V83d8pZ997Txuc6RfxCM-278" style="edgeStyle=orthogonalEdgeStyle;rounded=1;orthogonalLoop=1;jettySize=auto;html=1;entryX=0;entryY=0.5;entryDx=0;entryDy=0;endArrow=none;strokeColor=#b85450;fillColor=#f8cecc;dashed=1;endFill=0;" edge="1" parent="1" source="V83d8pZ997Txuc6RfxCM-279" target="V83d8pZ997Txuc6RfxCM-284">
          <mxGeometry relative="1" as="geometry" />
        </mxCell>
        <mxCell id="V83d8pZ997Txuc6RfxCM-279" value="CW10.1" style="ellipse;whiteSpace=wrap;html=1;aspect=fixed;fontSize=10;labelPosition=center;verticalLabelPosition=top;align=center;verticalAlign=bottom;fillColor=#ffe6cc;strokeColor=#d79b00;fontColor=#FFB570;" vertex="1" parent="1">
          <mxGeometry x="210" y="420" width="20" height="20" as="geometry" />
        </mxCell>
        <mxCell id="V83d8pZ997Txuc6RfxCM-280" style="edgeStyle=orthogonalEdgeStyle;rounded=1;orthogonalLoop=1;jettySize=auto;html=1;dashed=1;endArrow=none;endFill=0;fontSize=10;fontColor=#FFB570;fillColor=#ffe6cc;strokeColor=#d79b00;" edge="1" parent="1" source="V83d8pZ997Txuc6RfxCM-281" target="V83d8pZ997Txuc6RfxCM-279">
          <mxGeometry relative="1" as="geometry" />
        </mxCell>
        <mxCell id="V83d8pZ997Txuc6RfxCM-281" value="CW10" style="ellipse;whiteSpace=wrap;html=1;aspect=fixed;fontSize=10;labelPosition=center;verticalLabelPosition=top;align=center;verticalAlign=bottom;fillColor=#ffe6cc;strokeColor=#d79b00;fontColor=#FFB570;" vertex="1" parent="1">
          <mxGeometry x="104.65999999999997" y="420" width="20" height="20" as="geometry" />
        </mxCell>
        <mxCell id="V83d8pZ997Txuc6RfxCM-282" value="CW10.2" style="ellipse;whiteSpace=wrap;html=1;aspect=fixed;fontSize=10;fillColor=#ffe6cc;strokeColor=#d79b00;labelPosition=center;verticalLabelPosition=top;align=center;verticalAlign=bottom;fontColor=#FFB570;" vertex="1" parent="1">
          <mxGeometry x="320" y="420" width="20" height="20" as="geometry" />
        </mxCell>
        <mxCell id="V83d8pZ997Txuc6RfxCM-283" style="edgeStyle=orthogonalEdgeStyle;rounded=1;orthogonalLoop=1;jettySize=auto;html=1;exitX=1;exitY=0.5;exitDx=0;exitDy=0;endArrow=none;strokeColor=#b85450;fillColor=#f8cecc;dashed=1;endFill=0;" edge="1" parent="1" source="V83d8pZ997Txuc6RfxCM-284">
          <mxGeometry relative="1" as="geometry">
            <mxPoint x="327" y="419" as="targetPoint" />
          </mxGeometry>
        </mxCell>
        <mxCell id="V83d8pZ997Txuc6RfxCM-284" value="" style="ellipse;whiteSpace=wrap;html=1;aspect=fixed;fillColor=#f8cecc;strokeColor=#b85450;" vertex="1" parent="1">
          <mxGeometry x="280" y="370" width="20" height="20" as="geometry" />
        </mxCell>
        <mxCell id="V83d8pZ997Txuc6RfxCM-285" value="MERGE&amp;nbsp;" style="ellipse;whiteSpace=wrap;html=1;aspect=fixed;fontSize=10;labelPosition=center;verticalLabelPosition=top;align=center;verticalAlign=middle;fillColor=#d5e8d4;strokeColor=#82b366;fontColor=default;" vertex="1" parent="1">
          <mxGeometry x="590" y="470" width="20" height="20" as="geometry" />
        </mxCell>
        <mxCell id="V83d8pZ997Txuc6RfxCM-286" value="" style="edgeStyle=orthogonalEdgeStyle;shape=connector;rounded=1;orthogonalLoop=1;jettySize=auto;html=1;dashed=1;labelBackgroundColor=default;strokeColor=#82b366;fontFamily=Helvetica;fontSize=11;fontColor=default;endArrow=none;endFill=0;fillColor=#d5e8d4;" edge="1" parent="1" source="V83d8pZ997Txuc6RfxCM-287" target="V83d8pZ997Txuc6RfxCM-289">
          <mxGeometry relative="1" as="geometry" />
        </mxCell>
        <mxCell id="V83d8pZ997Txuc6RfxCM-287" value="" style="ellipse;whiteSpace=wrap;html=1;aspect=fixed;fillColor=#d5e8d4;strokeColor=#82b366;" vertex="1" parent="1">
          <mxGeometry x="450" y="470" width="20" height="20" as="geometry" />
        </mxCell>
        <mxCell id="V83d8pZ997Txuc6RfxCM-288" value="" style="edgeStyle=orthogonalEdgeStyle;shape=connector;rounded=1;orthogonalLoop=1;jettySize=auto;html=1;dashed=1;labelBackgroundColor=default;strokeColor=#82b366;fontFamily=Helvetica;fontSize=11;fontColor=default;endArrow=none;endFill=0;fillColor=#d5e8d4;" edge="1" parent="1" source="V83d8pZ997Txuc6RfxCM-289" target="V83d8pZ997Txuc6RfxCM-285">
          <mxGeometry relative="1" as="geometry" />
        </mxCell>
        <mxCell id="V83d8pZ997Txuc6RfxCM-289" value="" style="ellipse;whiteSpace=wrap;html=1;aspect=fixed;fillColor=#d5e8d4;strokeColor=#82b366;" vertex="1" parent="1">
          <mxGeometry x="510.0000000000001" y="470" width="20" height="20" as="geometry" />
        </mxCell>
      </root>
    </mxGraphModel>
  </diagram>
</mxfile>
